<?xml version="1.0" encoding="utf-8"?>
<!-- Generator: Adobe Illustrator 21.0.0, SVG Export Plug-In . SVG Version: 6.00 Build 0)  -->
<svg version="1.1" id="Layer_1" xmlns="http://www.w3.org/2000/svg" xmlns:xlink="http://www.w3.org/1999/xlink" x="0px" y="0px"
	 viewBox="0 0 220 60" style="enable-background:new 0 0 220 60;" xml:space="preserve">
<style type="text/css">
	.st0{fill:#F05822;}
	.st1{fill:#F37721;}
	.st2{fill:#F7981D;}
</style>
<g>
	<g>
		<path class="st0" d="M93.8,22.2c-0.1,0.2-0.3,0.3-0.4,0.3c-0.2,0-0.3-0.1-0.6-0.3c-0.2-0.2-0.6-0.4-1-0.7s-0.9-0.5-1.5-0.7
			c-0.6-0.2-1.4-0.3-2.2-0.3c-0.9,0-1.7,0.1-2.3,0.4c-0.7,0.3-1.2,0.6-1.7,1c-0.5,0.4-0.8,0.9-1,1.5c-0.2,0.6-0.4,1.2-0.4,1.8
			c0,0.8,0.2,1.5,0.5,2.1s0.8,1,1.4,1.4c0.6,0.4,1.2,0.7,2,1s1.5,0.5,2.3,0.8c0.8,0.3,1.5,0.5,2.3,0.8c0.7,0.3,1.4,0.7,2,1.1
			c0.6,0.5,1,1,1.4,1.7c0.4,0.7,0.5,1.5,0.5,2.5c0,1-0.2,2-0.5,2.9c-0.4,0.9-0.9,1.7-1.5,2.4c-0.7,0.7-1.5,1.2-2.5,1.6
			c-1,0.4-2.1,0.6-3.3,0.6c-1.6,0-3-0.3-4.2-0.9c-1-0.5-2-1.2-2.8-2c-0.2-0.2-0.2-0.4-0.1-0.6l0.3-0.4c0.1-0.2,0.3-0.3,0.5-0.3
			c0.1,0,0.2,0.1,0.4,0.2s0.4,0.3,0.6,0.5c0.2,0.2,0.5,0.4,0.8,0.7c0.3,0.2,0.7,0.5,1.1,0.7c0.4,0.2,0.9,0.4,1.5,0.5
			c0.6,0.1,1.2,0.2,1.9,0.2c1,0,1.8-0.1,2.6-0.4c0.8-0.3,1.4-0.7,1.9-1.2c0.5-0.5,0.9-1.1,1.2-1.8c0.3-0.7,0.4-1.4,0.4-2.2
			c0-0.9-0.2-1.6-0.5-2.1c-0.4-0.6-0.8-1-1.4-1.4c-0.6-0.4-1.2-0.7-2-0.9c-0.7-0.3-1.5-0.5-2.3-0.7c-0.8-0.2-1.5-0.5-2.3-0.8
			c-0.7-0.3-1.4-0.7-2-1.1c-0.6-0.5-1-1-1.4-1.7c-0.4-0.7-0.5-1.6-0.5-2.6c0-0.8,0.2-1.6,0.5-2.4c0.3-0.8,0.8-1.4,1.4-2
			c0.6-0.6,1.3-1,2.2-1.4c0.9-0.4,1.9-0.5,3-0.5c1.3,0,2.4,0.2,3.4,0.6c0.9,0.4,1.7,0.9,2.5,1.6c0.2,0.2,0.2,0.4,0.1,0.6L93.8,22.2z
			"/>
		<path class="st0" d="M102.3,34.4v8.8c0,0.3-0.2,0.5-0.5,0.5h-0.7c-0.3,0-0.5-0.2-0.5-0.5V19.8c0-0.3,0.2-0.5,0.5-0.5h5.8
			c2.9,0,5,0.6,6.5,1.9c1.5,1.3,2.2,3,2.2,5.4c0,1.1-0.2,2.1-0.6,3c-0.4,0.9-1,1.7-1.7,2.3c-0.7,0.7-1.7,1.2-2.7,1.5
			c-1.1,0.4-2.3,0.5-3.6,0.5h-4C102.6,33.9,102.3,34.1,102.3,34.4z M102.3,31.9c0,0.3,0.2,0.5,0.5,0.5h4c1.1,0,2.1-0.1,2.9-0.4
			c0.9-0.3,1.6-0.7,2.2-1.2c0.6-0.5,1-1.2,1.4-1.9c0.3-0.7,0.5-1.5,0.5-2.4c0-1.9-0.6-3.3-1.7-4.3c-1.2-1-2.9-1.5-5.2-1.5h-4
			c-0.3,0-0.5,0.2-0.5,0.5V31.9z"/>
		<path class="st0" d="M122.4,43.7h-0.7c-0.3,0-0.5-0.2-0.5-0.5V19.8c0-0.3,0.2-0.5,0.5-0.5h0.7c0.3,0,0.5,0.2,0.5,0.5v23.4
			C123,43.5,122.7,43.7,122.4,43.7z"/>
		<path class="st0" d="M151.5,31.5c0,1.9-0.3,3.6-0.8,5.1c-0.6,1.5-1.4,2.8-2.4,3.9c-1,1.1-2.3,1.9-3.7,2.4c-1.4,0.6-3,0.8-4.8,0.8
			h-8.4c-0.3,0-0.5-0.2-0.5-0.5V19.8c0-0.3,0.2-0.5,0.5-0.5h8.4c1.7,0,3.3,0.3,4.8,0.8c1.4,0.6,2.7,1.4,3.7,2.4
			c1,1.1,1.8,2.3,2.4,3.9C151.2,27.9,151.5,29.6,151.5,31.5z M149.6,31.5c0-1.7-0.2-3.2-0.7-4.6c-0.5-1.3-1.1-2.5-2-3.4
			c-0.9-0.9-1.9-1.6-3.1-2.1c-1.2-0.5-2.6-0.7-4-0.7h-6.6c-0.3,0-0.5,0.2-0.5,0.5v20.5c0,0.3,0.2,0.5,0.5,0.5h6.6
			c1.5,0,2.8-0.2,4-0.7c1.2-0.5,2.2-1.2,3.1-2.1c0.9-0.9,1.5-2.1,2-3.4C149.4,34.7,149.6,33.2,149.6,31.5z"/>
		<path class="st0" d="M171.8,19.8v0.4c0,0.3-0.2,0.5-0.5,0.5h-11.8c-0.3,0-0.5,0.2-0.5,0.5v8.8c0,0.3,0.2,0.5,0.5,0.5h9.7
			c0.3,0,0.5,0.2,0.5,0.5v0.4c0,0.3-0.2,0.5-0.5,0.5h-9.7c-0.3,0-0.5,0.2-0.5,0.5v9.1c0,0.3,0.2,0.5,0.5,0.5h11.8
			c0.3,0,0.5,0.2,0.5,0.5v0.4c0,0.3-0.2,0.5-0.5,0.5h-13.6c-0.3,0-0.5-0.2-0.5-0.5V19.8c0-0.3,0.2-0.5,0.5-0.5h13.6
			C171.6,19.3,171.8,19.5,171.8,19.8z"/>
		<path class="st0" d="M179.8,33.2v10c0,0.3-0.2,0.5-0.5,0.5h-0.7c-0.3,0-0.5-0.2-0.5-0.5V19.8c0-0.3,0.2-0.5,0.5-0.5h5.7
			c2.8,0,4.9,0.5,6.3,1.6c1.4,1.1,2.1,2.7,2.1,4.8c0,0.9-0.2,1.8-0.5,2.6c-0.3,0.8-0.8,1.4-1.4,2c-0.6,0.6-1.3,1.1-2.2,1.4
			c-0.6,0.2-1.2,0.4-1.8,0.6c-0.4,0.1-0.6,0.5-0.3,0.9l0,0l7.7,9.7c0.3,0.3,0,0.9-0.4,0.9h-0.4c-0.2,0-0.3,0-0.5-0.1
			c-0.1-0.1-0.3-0.2-0.4-0.3l-7.8-9.9c-0.2-0.3-0.4-0.4-0.6-0.5c-0.2-0.1-0.6-0.2-1-0.2h-2.7C180.1,32.7,179.8,32.9,179.8,33.2z
			 M179.8,30.8c0,0.3,0.2,0.5,0.5,0.5h3.7c1.1,0,2.1-0.1,2.9-0.4c0.9-0.3,1.6-0.6,2.2-1.1c0.6-0.5,1-1.1,1.4-1.7
			c0.3-0.7,0.5-1.4,0.5-2.3c0-1.7-0.6-3-1.7-3.9c-1.1-0.8-2.8-1.3-5-1.3h-3.9c-0.3,0-0.5,0.2-0.5,0.5V30.8z"/>
	</g>
</g>
<polyline class="st0" points="40.5,57 17.5,43.7 17.5,27.1 54.9,48.7 40.5,57 "/>
<polygon class="st1" points="17.5,24.9 17.5,17.3 24.2,13.3 63.4,36 63.4,43.8 56.8,47.6 "/>
<polyline class="st2" points="40.5,4 63.4,17.2 63.4,33.7 26.2,12.2 40.5,4 "/>
</svg>
